<svg width="16" height="16" viewBox="0 0 16 16" fill="none" xmlns="http://www.w3.org/2000/svg">
<path d="M9.28911 2.2928L10.4388 4.59216C10.5956 4.91224 11.0136 5.21925 11.3664 5.27804L13.4502 5.62425C14.7827 5.84635 15.0963 6.81312 14.136 7.76683L12.516 9.38683C12.2417 9.66119 12.0914 10.1903 12.1764 10.5692L12.6402 12.5746C13.006 14.1619 12.1633 14.7759 10.7589 13.9464L8.80572 12.7901C8.45298 12.5811 7.87161 12.5811 7.51233 12.7901L5.55919 13.9464C4.16128 14.7759 3.31209 14.1554 3.6779 12.5746L4.14169 10.5692C4.22661 10.1903 4.07636 9.66119 3.80201 9.38683L2.18201 7.76683C1.2283 6.81312 1.53532 5.84635 2.8679 5.62425L4.95169 5.27804C5.2979 5.21925 5.71596 4.91224 5.87273 4.59216L7.02241 2.2928C7.64951 1.04514 8.66854 1.04514 9.28911 2.2928Z" stroke="#BCBCBC" stroke-width="1.5" stroke-linecap="round" stroke-linejoin="round"/>
</svg>
