<svg width="138" height="43" viewBox="0 0 138 43" fill="none" xmlns="http://www.w3.org/2000/svg">
<path d="M17.5469 11.5469C17.9635 12.0052 18.1562 12.5365 18.125 13.1406C18.0938 13.7552 17.8542 14.2708 17.4062 14.6875C16.9479 15.0938 16.4167 15.2865 15.8125 15.2656C15.1979 15.2344 14.6823 14.9896 14.2656 14.5312C13.4635 13.6458 12.125 13.1979 10.25 13.1875C9.23958 13.1875 8.29688 13.3542 7.42188 13.6875C6.26562 14.1354 5.6875 14.7917 5.6875 15.6562C5.6875 16.5417 6.38542 17.1406 7.78125 17.4531C8.27083 17.5677 8.98958 17.6771 9.9375 17.7812C11.2708 17.9167 12.0938 18.0052 12.4062 18.0469C14.4688 18.3385 16.0104 18.8438 17.0312 19.5625C18.4375 20.5625 19.1406 22.0885 19.1406 24.1406C19.1406 26.3698 18.1406 28.1198 16.1406 29.3906C14.4323 30.474 12.401 31.0208 10.0469 31.0312C8.33854 31.0417 6.77083 30.75 5.34375 30.1562C3.6875 29.4792 2.47917 28.4896 1.71875 27.1875C1.30208 26.4792 1.14583 25.8021 1.25 25.1562C1.36458 24.4271 1.80208 23.901 2.5625 23.5781C3.04167 23.3802 3.52604 23.3542 4.01562 23.5C4.51562 23.6354 4.90625 23.9062 5.1875 24.3125C5.85417 25.25 6.54167 25.875 7.25 26.1875C7.875 26.4688 8.80729 26.6094 10.0469 26.6094C11.0677 26.599 12.0208 26.4271 12.9062 26.0938C14.1042 25.6458 14.7031 24.9948 14.7031 24.1406C14.7031 23.2865 14 22.6823 12.5938 22.3281C12.1042 22.1927 11.3854 22.0625 10.4375 21.9375C9.04167 21.7396 8.21875 21.6198 7.96875 21.5781C5.90625 21.2344 4.36458 20.7083 3.34375 20C1.9375 19.0208 1.23438 17.5729 1.23438 15.6562C1.23438 13.4271 2.22396 11.6719 4.20312 10.3906C5.91146 9.28646 7.9375 8.74479 10.2812 8.76562C13.4688 8.78646 15.8906 9.71354 17.5469 11.5469ZM38.8594 28.75C38.8594 29.375 38.6354 29.9062 38.1875 30.3438C37.75 30.7812 37.224 31 36.6094 31C35.6302 31 34.9427 30.5521 34.5469 29.6562C33.0885 30.5521 31.5 31 29.7812 31C27.2812 31 25.1458 30.1146 23.375 28.3438C21.6042 26.5729 20.7188 24.4375 20.7188 21.9375C20.7188 19.4271 21.6042 17.2865 23.375 15.5156C25.1458 13.7448 27.2812 12.8594 29.7812 12.8594C32.2917 12.8594 34.4323 13.7448 36.2031 15.5156C37.974 17.2865 38.8594 19.4271 38.8594 21.9375V28.75ZM33.0156 18.7031C32.1198 17.8073 31.0417 17.3594 29.7812 17.3594C28.5208 17.3594 27.4479 17.8073 26.5625 18.7031C25.6667 19.599 25.2188 20.6771 25.2188 21.9375C25.2188 23.1979 25.6667 24.276 26.5625 25.1719C27.4479 26.0573 28.5208 26.5 29.7812 26.5C31.0417 26.5 32.1198 26.0573 33.0156 25.1719C33.9115 24.276 34.3594 23.1979 34.3594 21.9375C34.3594 20.6771 33.9115 19.599 33.0156 18.7031ZM46.5 28.75C46.5 29.375 46.2812 29.9062 45.8438 30.3438C45.4062 30.7812 44.875 31 44.25 31C43.625 31 43.0938 30.7812 42.6562 30.3438C42.2188 29.9062 42 29.375 42 28.75V11.0312C42 10.4062 42.2188 9.875 42.6562 9.4375C43.0938 9 43.625 8.78125 44.25 8.78125C44.875 8.78125 45.4062 9 45.8438 9.4375C46.2812 9.875 46.5 10.4062 46.5 11.0312V28.75ZM58.2188 17.3594C56.9583 17.3594 55.8854 17.8073 55 18.7031C54.1042 19.599 53.6562 20.6771 53.6562 21.9375C53.6562 23.1979 54.1042 24.276 55 25.1719C55.8854 26.0573 56.9583 26.5 58.2188 26.5C59.4792 26.5 60.5573 26.0573 61.4531 25.1719C62.349 24.276 62.7969 23.1979 62.7969 21.9375C62.7969 20.6771 62.349 19.599 61.4531 18.7031C60.5573 17.8073 59.4792 17.3594 58.2188 17.3594ZM51.8125 15.5156C53.5833 13.7448 55.7188 12.8594 58.2188 12.8594C60.7292 12.8594 62.8698 13.7448 64.6406 15.5156C66.4115 17.2865 67.2969 19.4271 67.2969 21.9375C67.2969 24.4375 66.4115 26.5729 64.6406 28.3438C62.8698 30.1146 60.7292 31 58.2188 31C55.7188 31 53.5833 30.1146 51.8125 28.3438C50.0417 26.5729 49.1562 24.4375 49.1562 21.9375C49.1562 19.4271 50.0417 17.2865 51.8125 15.5156ZM87.4844 28.75C87.4844 29.375 87.2604 29.9062 86.8125 30.3438C86.375 30.7812 85.849 31 85.2344 31C84.6094 31 84.0781 30.7812 83.6406 30.3438C83.2031 29.9062 82.9844 29.375 82.9844 28.75V21.9375C82.9844 20.6771 82.5365 19.599 81.6406 18.7031C80.7448 17.8073 79.6667 17.3594 78.4062 17.3594C77.1458 17.3594 76.0729 17.8073 75.1875 18.7031C74.2917 19.599 73.8438 20.6771 73.8438 21.9375V28.75C73.8438 29.375 73.625 29.9062 73.1875 30.3438C72.75 30.7812 72.2188 31 71.5938 31C70.9688 31 70.4375 30.7812 70 30.3438C69.5625 29.9062 69.3438 29.375 69.3438 28.75V21.9375C69.3438 19.4271 70.2292 17.2865 72 15.5156C73.7708 13.7448 75.9062 12.8594 78.4062 12.8594C80.9167 12.8594 83.0573 13.7448 84.8281 15.5156C86.599 17.2865 87.4844 19.4271 87.4844 21.9375V28.75Z" fill="#7351E7"/>
<rect x="94" y="1" width="44" height="42" rx="10" fill="#7351E7"/>
<path d="M105.559 18.8555C105.559 19.3242 105.391 19.7227 105.055 20.0508C104.727 20.3789 104.332 20.543 103.871 20.543C103.402 20.543 103.004 20.3789 102.676 20.0508C102.348 19.7227 102.184 19.3242 102.184 18.8555C102.184 17.332 102.723 16.0312 103.801 14.9531C104.879 13.875 106.18 13.3359 107.703 13.3359C109.227 13.3359 110.527 13.875 111.605 14.9531C112.684 16.0312 113.223 17.332 113.223 18.8555C113.223 20.7695 112.727 22.1602 111.734 23.0273C111.133 23.5586 110.008 24.0508 108.359 24.5039C107.594 24.7148 107.043 24.9219 106.707 25.125C106.152 25.4688 105.766 25.9688 105.547 26.625H111.805C112.273 26.625 112.672 26.7891 113 27.1172C113.328 27.4453 113.492 27.8438 113.492 28.3125C113.492 28.7812 113.328 29.1797 113 29.5078C112.672 29.8359 112.273 30 111.805 30H103.625C103.156 30 102.758 29.8359 102.43 29.5078C102.102 29.1797 101.938 28.7812 101.938 28.3125C101.938 25.8672 102.523 24.0938 103.695 22.9922C104.391 22.3359 105.648 21.7578 107.469 21.2578C108.273 21.0391 108.824 20.8164 109.121 20.5898C109.605 20.207 109.848 19.6289 109.848 18.8555C109.848 18.2617 109.637 17.7539 109.215 17.332C108.801 16.918 108.297 16.7109 107.703 16.7109C107.109 16.7109 106.602 16.918 106.18 17.332C105.766 17.7539 105.559 18.2617 105.559 18.8555ZM122.305 13.3359C124.289 13.3359 125.965 14.1992 127.332 15.9258C128.605 17.5352 129.242 19.4492 129.242 21.668C129.242 23.8867 128.605 25.8008 127.332 27.4102C125.965 29.1367 124.289 30 122.305 30C120.312 30 118.637 29.1367 117.277 27.4102C116.004 25.8008 115.367 23.8867 115.367 21.668C115.367 19.4492 116.004 17.5352 117.277 15.9258C118.637 14.1992 120.312 13.3359 122.305 13.3359ZM124.695 18.0117C124.016 17.1445 123.219 16.7109 122.305 16.7109C121.391 16.7109 120.594 17.1445 119.914 18.0117C119.133 18.9961 118.742 20.2148 118.742 21.668C118.742 23.1211 119.133 24.3398 119.914 25.3242C120.594 26.1914 121.391 26.625 122.305 26.625C123.219 26.625 124.016 26.1914 124.695 25.3242C125.477 24.3398 125.867 23.1211 125.867 21.668C125.867 20.2148 125.477 18.9961 124.695 18.0117Z" fill="white"/>
</svg>
