<svg width="24" height="24" viewBox="0 0 24 24" fill="none" xmlns="http://www.w3.org/2000/svg">
<rect width="24" height="24" fill="#F5F5F5"/>
<g id="&#216;&#167;&#216;&#179;&#216;&#170;&#216;&#167;&#216;&#170;&#219;&#140;&#218;&#169;" clip-path="url(#clip0_0_1)">
<rect width="390" height="8740" transform="translate(-31 -83)" fill="white"/>
<g id="Group 3482612">
<g id="Rectangle 655" filter="url(#filter0_d_0_1)">
<rect x="-31" y="-35" width="390" height="92" fill="white"/>
</g>
<g id="Group 526">
<g id="Group 475">
<g id="Group 8">
<g id="Rectangle 3">
<rect x="-13" y="-14" width="354" height="51" rx="25.5" fill="white"/>
<rect x="-12.5" y="-13.5" width="353" height="50" rx="25" stroke="black" stroke-opacity="0.2"/>
</g>
<g id="Group 35882">
<g id="search-normal">
<g id="vuesax/linear/search-normal">
<g id="search-normal_2">
<path id="Vector" d="M11.5 21C16.7467 21 21 16.7467 21 11.5C21 6.25329 16.7467 2 11.5 2C6.25329 2 2 6.25329 2 11.5C2 16.7467 6.25329 21 11.5 21Z" stroke="#9B9B9B" stroke-width="1.5" stroke-linecap="round" stroke-linejoin="round"/>
<path id="Vector_2" d="M22 22L20 20" stroke="#9B9B9B" stroke-width="1.5" stroke-linecap="round" stroke-linejoin="round"/>
</g>
</g>
</g>
</g>
</g>
</g>
</g>
</g>
</g>
<defs>
<filter id="filter0_d_0_1" x="-35" y="-37" width="398" height="100" filterUnits="userSpaceOnUse" color-interpolation-filters="sRGB">
<feFlood flood-opacity="0" result="BackgroundImageFix"/>
<feColorMatrix in="SourceAlpha" type="matrix" values="0 0 0 0 0 0 0 0 0 0 0 0 0 0 0 0 0 0 127 0" result="hardAlpha"/>
<feOffset dy="2"/>
<feGaussianBlur stdDeviation="2"/>
<feComposite in2="hardAlpha" operator="out"/>
<feColorMatrix type="matrix" values="0 0 0 0 0 0 0 0 0 0 0 0 0 0 0 0 0 0 0.05 0"/>
<feBlend mode="normal" in2="BackgroundImageFix" result="effect1_dropShadow_0_1"/>
<feBlend mode="normal" in="SourceGraphic" in2="effect1_dropShadow_0_1" result="shape"/>
</filter>
<clipPath id="clip0_0_1">
<rect width="390" height="8740" fill="white" transform="translate(-31 -83)"/>
</clipPath>
</defs>
</svg>
