<svg width="18" height="17" viewBox="0 0 18 17" fill="none" xmlns="http://www.w3.org/2000/svg">
<path d="M10.381 2.46734L11.5908 4.88691C11.7558 5.22372 12.1957 5.54679 12.5669 5.60865L14.7596 5.97296C16.1618 6.20667 16.4918 7.22399 15.4813 8.22756L13.7766 9.93226C13.4879 10.221 13.3298 10.7777 13.4192 11.1764L13.9072 13.2867C14.2922 14.957 13.4055 15.6031 11.9276 14.7302L9.87234 13.5135C9.50115 13.2935 8.88939 13.2935 8.51133 13.5135L6.45607 14.7302C4.98508 15.6031 4.09149 14.9501 4.47642 13.2867L4.96446 11.1764C5.05382 10.7777 4.89572 10.221 4.60702 9.93226L2.90232 8.22756C1.89875 7.22399 2.22182 6.20667 3.62407 5.97296L5.81681 5.60865C6.18112 5.54679 6.62104 5.22372 6.78601 4.88691L7.9958 2.46734C8.65568 1.15444 9.72799 1.15444 10.381 2.46734Z" fill="#FFC700"/>
</svg>
